<svg xmlns="http://www.w3.org/2000/svg" viewBox="0 0 512 512">
  <defs>
    <linearGradient id="honey" x1="0%" x2="100%" y1="0%" y2="100%">
      <stop offset="0%" stop-color="#ffcd4d" />
      <stop offset="100%" stop-color="#ff8d62" />
    </linearGradient>
    <linearGradient id="coin" x1="0%" x2="100%" y1="0%" y2="100%">
      <stop offset="0%" stop-color="#ffd84f" />
      <stop offset="100%" stop-color="#f6a500" />
    </linearGradient>
  </defs>
  <path d="M256 416c-40-34-79-63-108-96-33-37-46-76-36-117 11-44 47-72 89-72 25 0 45 8 55 20 10-12 30-20 55-20 42 0 78 28 89 72 10 41-3 80-36 117-29 33-68 62-108 96Z" fill="url(#honey)" stroke="#7a3b30" stroke-width="12" stroke-linejoin="round" />
  <path d="M176 158l24-30 32 28" fill="none" stroke="#b55a1b" stroke-linecap="round" stroke-linejoin="round" stroke-width="12" />
  <path d="M336 158l-24-30-32 28" fill="none" stroke="#7a3b30" stroke-linecap="round" stroke-linejoin="round" stroke-width="12" />
  <circle cx="202" cy="226" r="64" fill="#ffd976" opacity="0.92" />
  <circle cx="310" cy="226" r="64" fill="#fff9f5" opacity="0.96" />
  <path d="M176 222c12-14 40-16 52 0" fill="none" stroke="#5a2626" stroke-linecap="round" stroke-width="10" />
  <path d="M284 222c12-14 40-16 52 0" fill="none" stroke="#5a2626" stroke-linecap="round" stroke-width="10" />
  <path d="M204 256c14 12 42 12 56 0" fill="none" stroke="#5a2626" stroke-linecap="round" stroke-width="10" />
  <path d="M252 256c14 12 42 12 56 0" fill="none" stroke="#5a2626" stroke-linecap="round" stroke-width="10" />
  <circle cx="256" cy="306" r="46" fill="url(#coin)" stroke="#c97e00" stroke-width="10" />
  <path d="M256 282v48M240 292c0-8 7-14 16-14h8c8 0 14 5 14 12 0 8-6 11-18 14s-18 6-18 14c0 7 6 12 14 12h10c9 0 16-6 16-14" fill="none" stroke="#fff3b0" stroke-linecap="round" stroke-linejoin="round" stroke-width="10" />
</svg>
