<svg xmlns="http://www.w3.org/2000/svg" viewBox="0 0 512 512">
  <defs>
    <linearGradient id="bg" x1="0%" x2="100%" y1="0%" y2="100%">
      <stop offset="0%" stop-color="#fff3e3" />
      <stop offset="100%" stop-color="#ffe0d3" />
    </linearGradient>
    <linearGradient id="honey" x1="0%" x2="100%" y1="0%" y2="100%">
      <stop offset="0%" stop-color="#ffcd4d" />
      <stop offset="100%" stop-color="#ff8d62" />
    </linearGradient>
  </defs>
  <rect width="512" height="512" fill="url(#bg)" />
  <path d="M256 396c-34-29-67-53-93-82-29-32-40-66-31-101 9-37 41-61 76-61 22 0 38 7 48 18 10-11 26-18 48-18 35 0 67 24 76 61 9 35-2 69-31 101-26 29-59 53-93 82Z" fill="url(#honey)" stroke="#6e3340" stroke-linejoin="round" stroke-width="12" />
  <circle cx="208" cy="235" r="55" fill="#ffd97e" />
  <circle cx="304" cy="235" r="55" fill="#fff8f4" />
  <circle cx="256" cy="302" r="42" fill="#ffca28" stroke="#d18900" stroke-width="10" />
  <path d="M256 280v42M243 289c0-7 6-12 13-12h7c7 0 12 5 12 10 0 7-5 10-15 13-10 2-15 5-15 12 0 6 5 10 12 10h8c8 0 13-5 13-12" fill="none" stroke="#fff4bf" stroke-linecap="round" stroke-linejoin="round" stroke-width="10" />
</svg>
